<svg height="30" viewBox="0 0 211 30" width="211" xmlns="http://www.w3.org/2000/svg"><g fill="none"><path d="m45.33 13.654-2.877-6.412c-.552-1.306-1.83-2.148-3.196-2.148-1.657 0-2.82 1.132-3.14 2.989l-2.208 12.39c-.029.262-.058.523-.058.784 0 2.031 1.337 3.482 3.226 3.482 1.656 0 2.877-1.131 3.197-2.988l.523-3.076 1.279 3.453c.668 1.799 1.685 2.611 3.254 2.611 1.511 0 2.645-.9 3.284-2.64l1.25-3.424.726 3.627c.262 1.45 1.54 2.437 3.168 2.437 1.744 0 3.139-1.364 3.139-3.105 0-.29-.03-.667-.117-1.073l-2.208-12.478c-.175-1.045-.436-1.596-.988-2.118s-1.424-.87-2.209-.87c-1.191 0-2.325.696-2.819 1.711zm19.221 4.963v-1.451h2.296c1.017 0 1.482-.116 1.976-.494a2.376 2.376 0 0 0 .843-1.828c0-1.364-1.017-2.292-2.587-2.292h-2.528v-1.335h3.197c1.191 0 1.86-.203 2.44-.696.67-.552 1.047-1.422 1.047-2.35 0-1.336-.872-2.438-2.209-2.787-.436-.116-.61-.145-2.44-.145h-3.837c-1.889 0-2.034.03-2.76.32-.67.29-1.28.87-1.541 1.596-.261.609-.29.812-.29 2.437v10.504c0 1.335.029 1.51.116 1.916.203 1.131.843 1.915 1.83 2.321.553.203.96.261 2.442.261h4.97c1.452 0 2.004-.145 2.644-.667a3.111 3.111 0 0 0 1.046-2.321c0-.871-.378-1.684-1.046-2.264-.669-.551-1.279-.725-2.674-.725zm15.136-7.458c.29.029.523.029.668.029.96-.03 1.482.348 1.482 1.044 0 .697-.493 1.045-1.453 1.016h-.697v-2.09zm6.364 5.978c1.482-1.654 2.064-3.076 2.064-4.933 0-3.134-2.093-5.833-5.086-6.675-.843-.203-1.54-.29-3.11-.29h-2.673c-1.54 0-2.18.203-2.906.842-.756.667-1.046 1.45-1.046 2.843v11.927c0 1.219.232 2.06.755 2.728.581.725 1.54 1.16 2.5 1.16 1.772 0 3.138-1.393 3.138-3.22v-2.641l2.644 4.381c.582.958 1.512 1.48 2.645 1.48 1.802 0 3.197-1.363 3.197-3.133 0-.668-.204-1.423-.61-2.06l-1.512-2.41zm22.869 1.828c0-1.654-1.512-3.134-3.197-3.134-.814 0-1.686.377-2.209.928l-.668.697c-.756.812-1.802 1.277-2.848 1.277a3.768 3.768 0 0 1 -3.778-3.773c0-2.118 1.685-3.772 3.807-3.772 1.046 0 2.063.406 2.76 1.16l.93 1.016c.436.465 1.25.784 2.006.784a3.204 3.204 0 0 0 3.196-3.192c0-1.277-.784-2.583-2.354-3.83a10.115 10.115 0 0 0 -6.48-2.35c-5.667 0-10.288 4.555-10.288 10.184 0 5.6 4.592 10.128 10.259 10.128 2.47 0 4.882-.929 6.77-2.554 1.367-1.19 2.093-2.409 2.093-3.57m10.255-1.508.988-2.322.988 2.322zm-1.948 4.614h5.929c.9 1.973 1.773 2.67 3.255 2.67 1.772 0 3.226-1.422 3.226-3.164 0-.493-.117-1.044-.378-1.538l-6.103-13c-.581-1.218-1.686-1.944-2.993-1.944-1.28 0-2.383.726-2.936 1.915l-6.073 12.855c-.262.552-.407 1.132-.407 1.683 0 1.8 1.395 3.193 3.168 3.193 1.54 0 2.499-.784 3.312-2.67zm20.335-10.882h.523c1.192 0 1.86.116 2.47.406 1.25.61 2.064 1.915 2.064 3.337 0 1.19-.61 2.38-1.57 3.076-.755.523-1.278.61-3.487.638zm-2.731-5.949c-1.86 0-3.052.726-3.517 2.119-.145.435-.145.609-.145 2.234v10.65c0 1.334 0 1.654.116 2.089.204.754.61 1.277 1.337 1.74.581.407 1.191.523 2.703.523h2.702c1.337 0 2.5-.087 3.284-.232a9.698 9.698 0 0 0 4.563-2.35 9.748 9.748 0 0 0 3.11-7.11c0-2.756-1.163-5.397-3.197-7.196-1.89-1.683-4.127-2.467-7.033-2.467zm22.338 9.663c0-2.06 1.715-3.714 3.807-3.714 2.093 0 3.807 1.683 3.807 3.743 0 2.09-1.714 3.83-3.807 3.83-2.092 0-3.807-1.74-3.807-3.859m-6.423-.087c0 5.717 4.534 10.273 10.23 10.273 5.609 0 10.2-4.585 10.2-10.186 0-5.6-4.562-10.127-10.23-10.127-5.666 0-10.2 4.469-10.2 10.04m33.05-2.205-5.086-6.239c-.727-.9-1.453-1.277-2.383-1.277-2.005 0-3.342 1.364-3.342 3.424v12.246c0 1.422.145 2.002.668 2.728a3.266 3.266 0 0 0 2.558 1.247c.959 0 1.86-.435 2.47-1.16.552-.697.726-1.277.726-2.554v-4.062l5.057 6.47c.668.87 1.511 1.306 2.528 1.306.989 0 1.919-.435 2.5-1.19.552-.725.697-1.363.697-2.901v-11.84c0-1.19-.203-1.857-.755-2.553-.61-.726-1.483-1.16-2.442-1.16-1.046 0-2.063.55-2.615 1.392-.465.667-.581 1.248-.581 2.525zm16.673 4.846.988-2.322.988 2.322zm-1.947 4.614h5.928c.901 1.973 1.773 2.67 3.255 2.67 1.773 0 3.226-1.422 3.226-3.164 0-.493-.116-1.044-.378-1.538l-6.103-13c-.58-1.218-1.685-1.944-2.993-1.944-1.279 0-2.383.726-2.935 1.915l-6.074 12.855c-.261.552-.406 1.132-.406 1.683 0 1.8 1.395 3.193 3.167 3.193 1.54 0 2.5-.784 3.313-2.67z" fill="#229e6b"/><path d="m14.953 28.817c-7.68 0-13.906-6.216-13.906-13.886 0-7.669 6.226-13.886 13.906-13.886s13.907 6.217 13.907 13.886c0 7.67-6.226 13.886-13.907 13.886m0-28.817c-8.258 0-14.953 6.685-14.953 14.931 0 8.247 6.695 14.932 14.953 14.932 8.26 0 14.954-6.685 14.954-14.932 0-8.246-6.695-14.93-14.954-14.93" fill="#229e6b"/><path d="m22.611 13.924-6.796-.021.026-8.366a.84.84 0 0 0 -.835-.839.84.84 0 0 0 -.84.834l-.026 8.366-6.794-.021a1.07 1.07 0 0 0 -1.072 1.063l-.024 7.59a1.07 1.07 0 0 0 1.065 1.07l15.266.048a1.071 1.071 0 0 0 1.072-1.064l.024-7.59a1.071 1.071 0 0 0 -1.066-1.07" fill="#fbba16"/><path d="m25.036 7.24c.273.222.183.325.01.564-.57.785-1.561 1.935-1.637 2.619-.086.772.155 1.908-.724 2.695-.364-.022-4.661-.014-4.661-.014.858-1.085 1.906-3.027 3.558-3.457 1.022-.265 1.738-1.444 2.394-2.39.34-.49.596-.396 1.06-.018" fill="#a71e59"/><path d="m20.597 9.215c-.696.428-1.119.899-1.513 1.38-.893 1.093-1.858 2.505-1.858 2.505l-.444-.002c.61-2.133-.365-3.601.585-4.173.638-.384.93.22 1.832-.227 1.13-.56 1.398.517 1.398.517m5.051 1.946c.15.08.218.269.185.435-.13.646.816 1.174.123 1.662-.69.484-.51.8-.914.8-.5-.002-.245-.606-1.368-.936.243-.428.379-.601.43-1.88.502-.265 1.137-.294 1.544-.08m-17.566-3.967c1.106-.688.912.906 1.436.595.28-.166.547-.03.579.182.08.518-.587 1.433-.563 2.003.001.03-.023.053-.053.05-.112-.014-.194-.013-.6.087-.36.09-.794.379-.794.379-.535-.185-1.028-.482-1.575-.783-.403-.223-.503-.393-.506-.72-.003-.398.312-.476.19-.737-.168-.36-.337-.785-.142-1.133.108-.172.33-.36.548-.35.752-.016.857.815 1.48.427m-2.911 1.461c.05.1.073.152.012.262-.201.366-.04.76.225 1.125.438.604 1.705.955 2.282 1.14l-.16.498c-1.305-.342-2.122-.233-3.106.004 0 0-.55.234-.892-.076-.344-.312-.18-.7.004-.856 0 0-.771-.481-.424-1.185.27-.55.793-.469.793-.469s-.12-.608.436-.886a.636.636 0 0 1 .627.042c.088.195.152.296.203.4m2.155 3.861-.002.553c-1.229-.044-1.781.383-2.098 1.332-.346 1.265-2.415.726-1.712-.98.537-1.2 2.47-1.325 3.812-.905" fill="#bbd43a"/><path d="m13.259 10.492c-.468-.024-.95.09-1.286.335-.993-.625-1.732-.47-1.654-.584.425-.625 1.75-1.154 2.95-.594 0 0 .012.651-.01.843m-1.951.776a7.471 7.471 0 0 0 -.182.186c-.598.64-.656 1.563-.656 1.563l-2.31-.008a2.549 2.549 0 0 1 .002-.922c.196-.851.767-1.27 1.698-1.267a2.945 2.945 0 0 1 1.442.376c.025.015.026.051.006.072m1.954 1.819-1.946-.006c.058-1.036.709-1.646 1.206-1.796.174-.053.473-.1.746-.097l-.006 1.9z" fill="#f05c2b"/></g></svg>